<?xml version="1.0" encoding="utf-8"?>
<svg version="1.1" xmlns:xlink="http://www.w3.org/1999/xlink" width="17px" height="12px" xmlns="http://www.w3.org/2000/svg">
  <g transform="matrix(1 0 0 1 -952 -177 )">
    <path d="M 12.6219308035714 9.40104166666667  C 13.8899739583333 8.55729166666667  14.944568452381 7.42361111111111  15.7857142857143 6  C 14.8244047619048 4.36111111111111  13.6196056547619 3.13541666666667  12.1713169642857 2.32291666666667  C 12.5571056547619 3.04513888888889  12.75 3.82638888888889  12.75 4.66666666666667  C 12.75 5.95138888888889  12.3341703869048 7.05034722222222  11.5025111607143 7.96354166666667  C 10.6708519345238 8.87673611111111  9.67001488095238 9.33333333333333  8.5 9.33333333333333  C 7.32998511904762 9.33333333333333  6.32914806547619 8.87673611111111  5.49748883928571 7.96354166666667  C 4.66582961309524 7.05034722222222  4.25 5.95138888888889  4.25 4.66666666666667  C 4.25 3.82638888888889  4.4428943452381 3.04513888888889  4.82868303571429 2.32291666666667  C 3.3803943452381 3.13541666666667  2.17559523809524 4.36111111111111  1.21428571428571 6  C 2.05543154761905 7.42361111111111  3.11002604166667 8.55729166666667  4.37806919642857 9.40104166666667  C 5.64611235119048 10.2447916666667  7.02008928571429 10.6666666666667  8.5 10.6666666666667  C 9.97991071428571 10.6666666666667  11.3538876488095 10.2447916666667  12.6219308035714 9.40104166666667  Z M 8.82254464285714 2.35416666666667  C 8.91108630952381 2.25694444444444  8.95535714285714 2.13888888888889  8.95535714285714 2  C 8.95535714285714 1.86111111111111  8.91108630952381 1.74305555555555  8.82254464285714 1.64583333333333  C 8.73400297619048 1.54861111111111  8.62648809523809 1.5  8.5 1.5  C 7.70944940476191 1.5  7.03115699404762 1.81076388888889  6.46512276785714 2.43229166666667  C 5.89908854166667 3.05381944444444  5.61607142857143 3.79861111111111  5.61607142857143 4.66666666666667  C 5.61607142857143 4.80555555555556  5.66034226190476 4.92361111111111  5.74888392857143 5.02083333333333  C 5.8374255952381 5.11805555555555  5.94494047619048 5.16666666666667  6.07142857142857 5.16666666666667  C 6.19791666666667 5.16666666666667  6.30543154761905 5.11805555555555  6.39397321428571 5.02083333333333  C 6.48251488095238 4.92361111111111  6.52678571428571 4.80555555555556  6.52678571428571 4.66666666666667  C 6.52678571428571 4.06944444444444  6.71968005952381 3.55902777777778  7.10546875 3.13541666666667  C 7.49125744047619 2.71180555555556  7.95610119047619 2.5  8.5 2.5  C 8.62648809523809 2.5  8.73400297619048 2.45138888888889  8.82254464285714 2.35416666666667  Z M 16.8102678571429 5.28125  C 16.936755952381 5.52430555555556  17 5.76388888888889  17 6  C 17 6.23611111111111  16.936755952381 6.47569444444444  16.8102678571429 6.71875  C 15.9248511904762 8.31597222222222  14.7342819940476 9.59548611111111  13.2385602678571 10.5572916666667  C 11.7428385416667 11.5190972222222  10.163318452381 12  8.5 12  C 6.83668154761905 12  5.25716145833333 11.5173611111111  3.76143973214286 10.5520833333333  C 2.26571800595238 9.58680555555556  1.07514880952381 8.30902777777778  0.189732142857143 6.71875  C 0.0632440476190476 6.47569444444444  0 6.23611111111111  0 6  C 0 5.76388888888889  0.0632440476190476 5.52430555555556  0.189732142857143 5.28125  C 1.07514880952381 3.69097222222222  2.26571800595238 2.41319444444444  3.76143973214286 1.44791666666667  C 5.25716145833333 0.482638888888888  6.83668154761905 0  8.5 0  C 10.163318452381 0  11.7428385416667 0.482638888888888  13.2385602678571 1.44791666666667  C 14.7342819940476 2.41319444444444  15.9248511904762 3.69097222222222  16.8102678571429 5.28125  Z " fill-rule="nonzero" fill="#000000" stroke="none" transform="matrix(1 0 0 1 952 177 )" />
  </g>
</svg>