<?xml version="1.0" encoding="utf-8"?>
<svg version="1.1" xmlns:xlink="http://www.w3.org/1999/xlink" width="9px" height="6px" xmlns="http://www.w3.org/2000/svg">
  <g transform="matrix(1 0 0 1 -129 -154 )">
    <path d="M 8.8330078125 4.86458333333333  C 8.9443359375 4.99652777777778  9 5.15277777777778  9 5.33333333333333  C 9 5.51388888888889  8.9443359375 5.67013888888889  8.8330078125 5.80208333333333  C 8.7216796875 5.93402777777778  8.58984375 6  8.4375 6  L 0.5625 6  C 0.41015625 6  0.2783203125 5.93402777777778  0.1669921875 5.80208333333333  C 0.0556640625 5.67013888888889  0 5.51388888888889  0 5.33333333333333  C 0 5.15277777777778  0.0556640625 4.99652777777778  0.1669921875 4.86458333333333  L 4.1044921875 0.197916666666667  C 4.2158203125 0.0659722222222214  4.34765625 0  4.5 0  C 4.65234375 0  4.7841796875 0.0659722222222214  4.8955078125 0.197916666666667  L 8.8330078125 4.86458333333333  Z " fill-rule="nonzero" fill="#000000" stroke="none" transform="matrix(1 0 0 1 129 154 )" />
  </g>
</svg>