<?xml version="1.0" encoding="utf-8"?>
<svg version="1.1" xmlns:xlink="http://www.w3.org/1999/xlink" width="13px" height="13px" xmlns="http://www.w3.org/2000/svg">
  <g transform="matrix(1 0 0 1 -755 -696 )">
    <path d="M 3.46666666666667 4.64285714285714  C 3.46666666666667 5.31510416666667  3.64947916666667 5.93415178571429  4.01510416666667 6.5  C 3.28385416666667 6.52418154761905  2.68576388888889 6.83370535714286  2.22083333333333 7.42857142857143  L 1.31354166666667 7.42857142857143  C 0.943402777777778 7.42857142857143  0.631944444444445 7.33063616071429  0.379166666666667 7.134765625  C 0.126388888888889 6.93889508928571  0 6.65234375  0 6.27511160714286  C 0 4.56789434523809  0.279861111111111 3.71428571428571  0.839583333333333 3.71428571428571  C 0.866666666666667 3.71428571428571  0.96484375 3.76506696428571  1.13411458333333 3.86662946428571  C 1.30338541666667 3.96819196428571  1.5234375 4.07096354166667  1.79427083333333 4.17494419642857  C 2.06510416666667 4.27892485119048  2.33368055555556 4.33091517857143  2.6 4.33091517857143  C 2.90243055555556 4.33091517857143  3.20260416666667 4.27529761904762  3.50052083333333 4.1640625  C 3.47795138888889 4.34300595238095  3.46666666666667 4.50260416666667  3.46666666666667 4.64285714285714  Z M 11.24296875 10.3702566964286  C 11.2587673611111 10.614490327381  11.2666666666667 10.8647693452381  11.2666666666667 11.12109375  C 11.2666666666667 11.7014508928571  11.1019097222222 12.1596912202381  10.7723958333333 12.4958147321429  C 10.4428819444444 12.8319382440476  10.0050347222222 13  9.45885416666667 13  L 3.54114583333333 13  C 2.99496527777778 13  2.55711805555556 12.8319382440476  2.22760416666667 12.4958147321429  C 1.89809027777778 12.1596912202381  1.73333333333333 11.7014508928571  1.73333333333333 11.12109375  C 1.73333333333333 10.8647693452381  1.74123263888889 10.614490327381  1.75703125 10.3702566964286  C 1.77282986111111 10.1260230654762  1.80442708333333 9.86244419642857  1.85182291666667 9.57952008928571  C 1.89921875 9.29659598214286  1.95902777777778 9.03422619047619  2.03125 8.79241071428571  C 2.10347222222222 8.55059523809524  2.20052083333333 8.31482514880952  2.32239583333333 8.08510044642857  C 2.44427083333333 7.85537574404762  2.58420138888889 7.65950520833333  2.7421875 7.49748883928571  C 2.90017361111111 7.3354724702381  3.09314236111111 7.20610119047619  3.32109375 7.109375  C 3.54904513888889 7.01264880952381  3.80069444444444 6.96428571428571  4.07604166666667 6.96428571428571  C 4.12118055555556 6.96428571428571  4.21822916666667 7.01627604166667  4.3671875 7.12025669642857  C 4.51614583333333 7.22423735119048  4.68090277777778 7.3403087797619  4.86145833333333 7.46847098214286  C 5.04201388888889 7.59663318452381  5.28350694444444 7.71270461309524  5.5859375 7.81668526785714  C 5.88836805555556 7.92066592261905  6.19305555555556 7.97265625  6.5 7.97265625  C 6.80694444444444 7.97265625  7.11163194444444 7.92066592261905  7.4140625 7.81668526785714  C 7.71649305555556 7.71270461309524  7.95798611111111 7.59663318452381  8.13854166666667 7.46847098214286  C 8.31909722222222 7.3403087797619  8.48385416666667 7.22423735119048  8.6328125 7.12025669642857  C 8.78177083333333 7.01627604166667  8.87881944444445 6.96428571428571  8.92395833333333 6.96428571428571  C 9.19930555555556 6.96428571428571  9.45095486111111 7.01264880952381  9.67890625 7.109375  C 9.90685763888889 7.20610119047619  10.0998263888889 7.3354724702381  10.2578125 7.49748883928571  C 10.4157986111111 7.65950520833333  10.5557291666667 7.85537574404762  10.6776041666667 8.08510044642857  C 10.7994791666667 8.31482514880952  10.8965277777778 8.55059523809524  10.96875 8.79241071428571  C 11.0409722222222 9.03422619047619  11.10078125 9.29659598214286  11.1481770833333 9.57952008928571  C 11.1955729166667 9.86244419642857  11.2271701388889 10.1260230654762  11.24296875 10.3702566964286  Z M 3.82552083333333 0.544084821428572  C 4.1640625 0.906808035714286  4.33333333333333 1.34449404761905  4.33333333333333 1.85714285714286  C 4.33333333333333 2.36979166666667  4.1640625 2.80747767857143  3.82552083333333 3.17020089285714  C 3.48697916666667 3.53292410714286  3.07847222222222 3.71428571428571  2.6 3.71428571428571  C 2.12152777777778 3.71428571428571  1.71302083333333 3.53292410714286  1.37447916666667 3.17020089285714  C 1.0359375 2.80747767857143  0.866666666666667 2.36979166666667  0.866666666666667 1.85714285714286  C 0.866666666666667 1.34449404761905  1.0359375 0.906808035714286  1.37447916666667 0.544084821428572  C 1.71302083333333 0.181361607142858  2.12152777777778 0  2.6 0  C 3.07847222222222 0  3.48697916666667 0.181361607142858  3.82552083333333 0.544084821428572  Z M 8.33828125 2.67327008928571  C 8.84609375 3.21735491071429  9.1 3.87388392857143  9.1 4.64285714285714  C 9.1 5.41183035714286  8.84609375 6.068359375  8.33828125 6.61244419642857  C 7.83046875 7.15652901785714  7.21770833333333 7.42857142857143  6.5 7.42857142857143  C 5.78229166666667 7.42857142857143  5.16953125 7.15652901785714  4.66171875 6.61244419642857  C 4.15390625 6.068359375  3.9 5.41183035714286  3.9 4.64285714285714  C 3.9 3.87388392857143  4.15390625 3.21735491071429  4.66171875 2.67327008928571  C 5.16953125 2.12918526785714  5.78229166666667 1.85714285714286  6.5 1.85714285714286  C 7.21770833333333 1.85714285714286  7.83046875 2.12918526785714  8.33828125 2.67327008928571  Z M 12.1604166666667 3.71428571428571  C 12.7201388888889 3.71428571428571  13 4.56789434523809  13 6.27511160714286  C 13 6.65234375  12.8736111111111 6.93889508928571  12.6208333333333 7.134765625  C 12.3680555555556 7.33063616071429  12.0565972222222 7.42857142857143  11.6864583333333 7.42857142857143  L 10.7791666666667 7.42857142857143  C 10.3142361111111 6.83370535714286  9.71614583333333 6.52418154761905  8.98489583333333 6.5  C 9.35052083333333 5.93415178571429  9.53333333333333 5.31510416666667  9.53333333333333 4.64285714285714  C 9.53333333333333 4.50260416666667  9.52204861111111 4.34300595238095  9.49947916666667 4.1640625  C 9.79739583333333 4.27529761904762  10.0975694444444 4.33091517857143  10.4 4.33091517857143  C 10.6663194444444 4.33091517857143  10.9348958333333 4.27892485119048  11.2057291666667 4.17494419642857  C 11.4765625 4.07096354166667  11.6966145833333 3.96819196428571  11.8658854166667 3.86662946428571  C 12.03515625 3.76506696428571  12.1333333333333 3.71428571428571  12.1604166666667 3.71428571428571  Z M 11.6255208333333 0.544084821428572  C 11.9640625 0.906808035714286  12.1333333333333 1.34449404761905  12.1333333333333 1.85714285714286  C 12.1333333333333 2.36979166666667  11.9640625 2.80747767857143  11.6255208333333 3.17020089285714  C 11.2869791666667 3.53292410714286  10.8784722222222 3.71428571428571  10.4 3.71428571428571  C 9.92152777777778 3.71428571428571  9.51302083333333 3.53292410714286  9.17447916666667 3.17020089285714  C 8.8359375 2.80747767857143  8.66666666666667 2.36979166666667  8.66666666666667 1.85714285714286  C 8.66666666666667 1.34449404761905  8.8359375 0.906808035714286  9.17447916666667 0.544084821428572  C 9.51302083333333 0.181361607142858  9.92152777777778 0  10.4 0  C 10.8784722222222 0  11.2869791666667 0.181361607142858  11.6255208333333 0.544084821428572  Z " fill-rule="nonzero" fill="#000000" stroke="none" transform="matrix(1 0 0 1 755 696 )" />
  </g>
</svg>