<?xml version="1.0" encoding="utf-8"?>
<svg version="1.1" xmlns:xlink="http://www.w3.org/1999/xlink" width="13px" height="15px" xmlns="http://www.w3.org/2000/svg">
  <g transform="matrix(1 0 0 1 -765 -663 )">
    <path d="M 12.913671875 10.8447265625  C 12.9712239583333 11.3362630208333  13 11.8587239583333  13 12.412109375  C 13 13.1217447916667  12.7884114583333 13.73046875  12.365234375 14.23828125  C 11.9420572916667 14.74609375  11.4325520833333 15  10.83671875 15  L 2.16328125 15  C 1.56744791666667 15  1.05794270833333 14.74609375  0.634765625 14.23828125  C 0.211588541666667 13.73046875  0 13.1217447916667  0 12.412109375  C 0 11.8587239583333  0.0287760416666667 11.3362630208333  0.0863281250000001 10.8447265625  C 0.143880208333333 10.3531901041667  0.250520833333333 9.8583984375  0.40625 9.3603515625  C 0.561979166666667 8.8623046875  0.760026041666667 8.43587239583333  1.000390625 8.0810546875  C 1.24075520833333 7.72623697916667  1.558984375 7.4365234375  1.955078125 7.2119140625  C 2.351171875 6.9873046875  2.80651041666667 6.875  3.32109375 6.875  C 4.20807291666667 7.70833333333333  5.26770833333333 8.125  6.5 8.125  C 7.73229166666667 8.125  8.79192708333333 7.70833333333333  9.67890625 6.875  C 10.1934895833333 6.875  10.648828125 6.9873046875  11.044921875 7.2119140625  C 11.441015625 7.4365234375  11.7592447916667 7.72623697916667  11.999609375 8.0810546875  C 12.2399739583333 8.43587239583333  12.4380208333333 8.8623046875  12.59375 9.3603515625  C 12.7494791666667 9.8583984375  12.8561197916667 10.3531901041667  12.913671875 10.8447265625  Z M 9.257421875 1.0986328125  C 10.019140625 1.8310546875  10.4 2.71484375  10.4 3.75  C 10.4 4.78515625  10.019140625 5.6689453125  9.257421875 6.4013671875  C 8.495703125 7.1337890625  7.5765625 7.5  6.5 7.5  C 5.4234375 7.5  4.504296875 7.1337890625  3.742578125 6.4013671875  C 2.980859375 5.6689453125  2.6 4.78515625  2.6 3.75  C 2.6 2.71484375  2.980859375 1.8310546875  3.742578125 1.0986328125  C 4.504296875 0.3662109375  5.4234375 0  6.5 0  C 7.5765625 0  8.495703125 0.3662109375  9.257421875 1.0986328125  Z " fill-rule="nonzero" fill="#000000" stroke="none" transform="matrix(1 0 0 1 765 663 )" />
  </g>
</svg>